<svg xmlns="http://www.w3.org/2000/svg" width="512" height="512" viewBox="0 0 512 512" role="img" aria-label="Block Stack icon">
  <defs>
    <linearGradient id="bg" x1="0" y1="0" x2="0" y2="1">
      <stop offset="0%" stop-color="#1c284b" />
      <stop offset="100%" stop-color="#0a1022" />
    </linearGradient>
    <linearGradient id="blockA" x1="0" y1="0" x2="1" y2="1">
      <stop offset="0%" stop-color="#2bd6ff" />
      <stop offset="100%" stop-color="#2884ff" />
    </linearGradient>
    <linearGradient id="blockB" x1="0" y1="0" x2="1" y2="1">
      <stop offset="0%" stop-color="#a166ff" />
      <stop offset="100%" stop-color="#7044ff" />
    </linearGradient>
    <linearGradient id="blockC" x1="0" y1="0" x2="1" y2="1">
      <stop offset="0%" stop-color="#40e26f" />
      <stop offset="100%" stop-color="#23ad6b" />
    </linearGradient>
  </defs>
  <rect width="512" height="512" rx="108" fill="url(#bg)" />
  <g transform="translate(92 80)" stroke="rgba(255,255,255,0.18)" stroke-width="8">
    <rect x="0" y="132" width="66" height="66" rx="10" fill="url(#blockA)" />
    <rect x="66" y="132" width="66" height="66" rx="10" fill="url(#blockA)" />
    <rect x="132" y="132" width="66" height="66" rx="10" fill="url(#blockA)" />
    <rect x="198" y="132" width="66" height="66" rx="10" fill="url(#blockA)" />
    <rect x="132" y="66" width="66" height="66" rx="10" fill="url(#blockB)" />
    <rect x="132" y="198" width="66" height="66" rx="10" fill="url(#blockB)" />
    <rect x="66" y="198" width="66" height="66" rx="10" fill="url(#blockB)" />
    <rect x="264" y="198" width="66" height="66" rx="10" fill="url(#blockC)" />
    <rect x="264" y="264" width="66" height="66" rx="10" fill="url(#blockC)" />
    <rect x="198" y="264" width="66" height="66" rx="10" fill="url(#blockC)" />
    <rect x="198" y="330" width="66" height="66" rx="10" fill="url(#blockC)" />
  </g>
</svg>
